<?xml version="1.0" encoding="UTF-8"?>
<svg xmlns="http://www.w3.org/2000/svg" xmlns:xlink="http://www.w3.org/1999/xlink" width="375pt" height="374.999991pt" viewBox="0 0 375 374.999991" version="1.2">
<defs>
<clipPath id="clip1">
  <path d="M 26.132812 15.5 L 348 15.5 L 348 359 L 26.132812 359 Z M 26.132812 15.5 "/>
</clipPath>
</defs>
<g id="surface1">
<g clip-path="url(#clip1)" clip-rule="nonzero">
<path style=" stroke:none;fill-rule:evenodd;fill:rgb(86.669922%,90.979004%,90.979004%);fill-opacity:1;" d="M 264.335938 214.554688 C 260.429688 210.640625 253.933594 210.640625 249.847656 214.554688 C 245.761719 218.46875 245.941406 224.972656 249.847656 229.0625 L 318.578125 297.894531 C 322.488281 301.808594 328.980469 301.808594 333.066406 297.894531 C 336.976562 293.980469 336.976562 287.472656 333.066406 283.382812 Z M 153.4375 57.164062 C 105.515625 57.164062 66.5 96.039062 66.5 144.222656 C 66.5 192.410156 105.460938 231.113281 153.4375 231.113281 C 201.410156 231.113281 240.371094 192.238281 240.371094 144.054688 C 240.371094 95.867188 201.550781 57.164062 153.4375 57.164062 Z M 154.550781 210.640625 C 153.460938 210.640625 152.375 210.613281 151.285156 210.5625 C 150.199219 210.507812 149.113281 210.429688 148.03125 210.324219 C 146.945312 210.21875 145.867188 210.085938 144.789062 209.925781 C 143.710938 209.765625 142.640625 209.582031 141.574219 209.371094 C 140.503906 209.15625 139.441406 208.917969 138.386719 208.65625 C 137.332031 208.390625 136.28125 208.101562 135.238281 207.785156 C 134.199219 207.46875 133.164062 207.128906 132.140625 206.761719 C 131.113281 206.394531 130.097656 206 129.09375 205.585938 C 128.085938 205.167969 127.089844 204.726562 126.105469 204.261719 C 125.121094 203.796875 124.152344 203.304688 123.191406 202.792969 C 122.230469 202.277344 121.285156 201.742188 120.347656 201.179688 C 119.414062 200.621094 118.496094 200.039062 117.589844 199.433594 C 116.683594 198.828125 115.796875 198.199219 114.921875 197.550781 C 114.046875 196.902344 113.1875 196.230469 112.347656 195.539062 C 111.503906 194.847656 110.679688 194.136719 109.875 193.402344 C 109.066406 192.671875 108.28125 191.921875 107.511719 191.148438 C 106.742188 190.378906 105.988281 189.589844 105.257812 188.78125 C 104.527344 187.972656 103.816406 187.148438 103.125 186.304688 C 102.4375 185.464844 101.765625 184.605469 101.117188 183.726562 C 100.46875 182.851562 99.84375 181.960938 99.238281 181.054688 C 98.632812 180.148438 98.050781 179.226562 97.492188 178.292969 C 96.933594 177.355469 96.398438 176.410156 95.882812 175.445312 C 95.371094 174.484375 94.882812 173.511719 94.417969 172.527344 C 93.953125 171.539062 93.511719 170.542969 93.09375 169.535156 C 92.679688 168.527344 92.289062 167.511719 91.921875 166.484375 C 91.554688 165.457031 91.214844 164.421875 90.898438 163.378906 C 90.582031 162.335938 90.292969 161.285156 90.03125 160.230469 C 89.765625 159.171875 89.527344 158.109375 89.316406 157.039062 C 89.105469 155.96875 88.917969 154.894531 88.761719 153.816406 C 88.601562 152.738281 88.46875 151.65625 88.363281 150.570312 C 88.257812 149.488281 88.179688 148.398438 88.125 147.3125 C 88.074219 146.222656 88.046875 145.132812 88.046875 144.042969 C 88.046875 142.953125 88.074219 141.863281 88.125 140.773438 C 88.179688 139.683594 88.257812 138.597656 88.363281 137.511719 C 88.46875 136.425781 88.601562 135.347656 88.761719 134.265625 C 88.917969 133.1875 89.105469 132.113281 89.316406 131.046875 C 89.527344 129.976562 89.765625 128.914062 90.03125 127.855469 C 90.292969 126.796875 90.582031 125.746094 90.898438 124.703125 C 91.214844 123.660156 91.554688 122.625 91.921875 121.597656 C 92.289062 120.570312 92.679688 119.554688 93.09375 118.546875 C 93.511719 117.539062 93.953125 116.542969 94.417969 115.558594 C 94.882812 114.574219 95.371094 113.597656 95.882812 112.636719 C 96.398438 111.675781 96.933594 110.726562 97.492188 109.792969 C 98.050781 108.855469 98.632812 107.9375 99.238281 107.03125 C 99.84375 106.125 100.46875 105.230469 101.117188 104.355469 C 101.765625 103.480469 102.4375 102.621094 103.125 101.777344 C 103.816406 100.9375 104.527344 100.109375 105.257812 99.300781 C 105.988281 98.496094 106.742188 97.707031 107.511719 96.933594 C 108.28125 96.164062 109.066406 95.414062 109.875 94.679688 C 110.679688 93.949219 111.503906 93.234375 112.347656 92.542969 C 113.1875 91.851562 114.046875 91.183594 114.921875 90.535156 C 115.796875 89.882812 116.683594 89.257812 117.589844 88.652344 C 118.496094 88.046875 119.414062 87.464844 120.347656 86.902344 C 121.285156 86.34375 122.230469 85.804688 123.191406 85.292969 C 124.152344 84.777344 125.121094 84.289062 126.105469 83.824219 C 127.089844 83.355469 128.085938 82.917969 129.09375 82.5 C 130.097656 82.082031 131.113281 81.691406 132.140625 81.324219 C 133.164062 80.957031 134.199219 80.617188 135.238281 80.300781 C 136.28125 79.984375 137.332031 79.695312 138.386719 79.429688 C 139.441406 79.164062 140.503906 78.925781 141.574219 78.714844 C 142.640625 78.503906 143.710938 78.316406 144.789062 78.15625 C 145.867188 78 146.945312 77.867188 148.03125 77.761719 C 149.113281 77.652344 150.199219 77.574219 151.285156 77.523438 C 152.375 77.46875 153.460938 77.441406 154.550781 77.445312 C 191.148438 77.445312 221.050781 107.203125 221.050781 144.042969 C 221.050781 180.878906 191.140625 210.640625 154.550781 210.640625 Z M 344.269531 341.054688 L 256.027344 252.683594 C 251.941406 248.59375 245.625 248.59375 241.539062 252.683594 C 237.453125 256.777344 237.453125 263.101562 241.539062 267.195312 L 329.777344 355.5625 C 333.863281 359.652344 340.183594 359.652344 344.269531 355.5625 C 348.175781 351.472656 348.175781 344.957031 344.269531 341.054688 Z M 200.671875 247.109375 C 199.859375 246.316406 198.933594 245.695312 197.890625 245.246094 L 195.105469 242.460938 C 188.519531 245.234375 181.726562 247.328125 174.71875 248.738281 C 167.714844 250.148438 160.640625 250.84375 153.496094 250.828125 C 93.6875 250.828125 45.195312 202.273438 45.195312 142.566406 C 45.195312 82.859375 93.921875 33.929688 153.675781 33.929688 C 213.433594 33.929688 261.917969 82.472656 261.917969 142.1875 C 261.921875 149.339844 261.222656 156.425781 259.816406 163.4375 C 258.40625 170.453125 256.324219 177.257812 253.558594 183.855469 L 318.207031 248.59375 C 322.117188 252.507812 328.613281 252.507812 332.699219 248.59375 C 336.78125 244.679688 336.605469 238.175781 332.699219 234.082031 L 274.871094 176.171875 C 278.082031 165.195312 279.511719 153.660156 279.511719 141.941406 C 279.570312 72.054688 223.097656 15.5 153.253906 15.5 C 83.410156 15.5 26.75 71.867188 26.75 141.816406 C 26.75 211.765625 83.222656 268.308594 153.0625 268.308594 C 164.925781 268.320312 176.566406 266.707031 187.984375 263.472656 L 280.121094 355.746094 C 284.03125 359.660156 290.527344 359.660156 294.613281 355.746094 C 298.695312 351.832031 298.519531 345.328125 294.613281 341.234375 L 200.625 247.109375 Z M 200.671875 247.109375 "/>
</g>
</g>
</svg>
